<?xml version="1.0" encoding="iso-8859-1"?>
<!-- Generator: Adobe Illustrator 16.0.0, SVG Export Plug-In . SVG Version: 6.00 Build 0)  -->
<!DOCTYPE svg PUBLIC "-//W3C//DTD SVG 1.1//EN" "http://www.w3.org/Graphics/SVG/1.1/DTD/svg11.dtd">
<svg version="1.1" id="Capa_1" xmlns="http://www.w3.org/2000/svg" xmlns:xlink="http://www.w3.org/1999/xlink" x="0px" y="0px"
	 width="224.987px" height="224.987px" viewBox="0 0 224.987 224.987" style="enable-background:new 0 0 224.987 224.987;"
	 xml:space="preserve">
<g>
	<g>
		<path d="M95.355,145.66c0,2.224,1.813,4.051,4.051,4.051c2.24,0,13.08,0,13.08,0s-10.84-8.099-13.08-8.099
			C97.168,141.601,95.355,143.408,95.355,145.66z"/>
		<path d="M125.571,141.601c-2.236,0-13.085,8.095-13.085,8.095s10.841,0,13.085,0c2.24,0,4.063-1.812,4.063-4.063
			C129.635,143.408,127.812,141.601,125.571,141.601z"/>
		<path d="M190.768,101.823c-1.888,0-3.694,0.501-5.33,1.411c-9.009-28.812-29.038-53.03-53.808-61.554
			c-3.382-7.434-9.594-24.257-6.151-41.679C112,9.698,110.695,26.796,111.309,37.095c-2.222-6.734-7.466-15.827-19.955-21.141
			c6.592,9.081,8.414,18.124,8.846,23.816c-27.886,6.054-50.816,32.038-60.652,63.464c-1.641-0.902-3.438-1.411-5.324-1.411
			c-7.7,0-13.942,8.267-13.942,18.455c0,7.209,7.161,14.33,14.076,17.933c0.344,50.454,14.429,71.028,35.61,84.316
			c12.239,7.687,26.84-5.153,42.524-5.153c15.68,0,30.267,12.848,42.505,5.165c21.212-13.276,35.285-33.874,35.639-84.328
			c6.916-3.618,14.069-10.731,14.069-17.933C204.697,110.074,198.458,101.823,190.768,101.823z M112.486,198.851
			c-23.467,0-42.502-19.003-42.502-19.003s19.035,11.208,42.502,11.208c23.452,0,42.495-11.208,42.495-11.208
			S135.938,198.851,112.486,198.851z M143.757,150.092c0,0,16.987-2.597,17.003,14.407c0,5.854,2.722,11.093,2.722,11.093
			s-22.479,8.504-50.995,8.504c-28.519,0-50.998-8.504-50.998-8.504s2.568-5.238,2.711-11.093
			c0.407-16.987,17.003-14.407,17.003-14.407c-10.993,0-28.396-12.688-28.396-28.389c0-10.984,8.902-19.88,19.895-19.88
			c10.991,0,26.848,16.287,39.778,16.287c12.924,0,28.32-16.287,39.773-16.287s19.901,8.896,19.901,19.88
			C172.169,137.404,154.757,150.092,143.757,150.092z"/>
		<path d="M72.513,115.849c-4.695,0-8.502,3.808-8.502,8.5c0,4.708,20.45,11.165,20.45,11.165s-3.457-6.457-3.457-11.165
			C81.004,119.656,77.197,115.849,72.513,115.849z"/>
		<path d="M152.457,115.849c-4.689,0-8.5,3.808-8.5,8.5c0,4.708-3.45,11.165-3.45,11.165s20.445-6.457,20.445-11.165
			C160.952,119.656,157.142,115.849,152.457,115.849z"/>
	</g>
</g>
<g>
</g>
<g>
</g>
<g>
</g>
<g>
</g>
<g>
</g>
<g>
</g>
<g>
</g>
<g>
</g>
<g>
</g>
<g>
</g>
<g>
</g>
<g>
</g>
<g>
</g>
<g>
</g>
<g>
</g>
</svg>
